<?xml version="1.0" encoding="UTF-8"?>
<svg id="Layer_1" data-name="Layer 1" xmlns="http://www.w3.org/2000/svg" viewBox="0 0 26.01 26.01">
  <path d="m23.52,5.64C19.46-.17,11.45-1.58,5.64,2.49-.17,6.55-1.58,14.56,2.49,20.37c4.07,5.81,12.07,7.22,17.88,3.15,5.81-4.07,7.22-12.07,3.15-17.88Zm-10.52,11.57c-2.32,0-4.2-1.88-4.2-4.21s1.88-4.2,4.2-4.2,4.21,1.88,4.21,4.2-1.88,4.21-4.21,4.21Z" style="fill: #a8a8a8;"/>
  <path d="m13,4.83c-4.51,0-8.17,3.66-8.17,8.17s3.66,8.17,8.17,8.17,8.17-3.66,8.17-8.17-3.66-8.17-8.17-8.17Zm0,12.37c-2.32,0-4.2-1.88-4.2-4.21s1.88-4.2,4.2-4.2,4.21,1.88,4.21,4.2-1.88,4.21-4.21,4.21Z" style="fill: #231f20;"/>
</svg>