<?xml version="1.0" encoding="UTF-8"?>
<svg id="Layer_1" data-name="Layer 1" xmlns="http://www.w3.org/2000/svg" viewBox="0 0 26.04 27.68">
  <path d="m24.68,16.01h0c1.2.69,1.61,2.22.92,3.42l-1.44,2.5c-.69,1.2-2.22,1.61-3.42.92h0c-1.67-.97-3.75.24-3.75,2.16h0c0,1.39-1.12,2.51-2.5,2.51h-2.87c-1.38,0-2.5-1.12-2.5-2.5v-.02c0-1.93-2.09-3.13-3.75-2.17h-.02c-1.2.7-2.73.29-3.42-.9l-1.44-2.49c-.69-1.2-.28-2.73.92-3.42h0c1.67-.96,1.67-3.37,0-4.34h-.01c-1.2-.7-1.6-2.23-.91-3.42l1.44-2.5c.69-1.2,2.22-1.61,3.42-.92h.02c1.67.97,3.75-.23,3.75-2.16v-.02c0-1.38,1.12-2.5,2.5-2.5h2.87c1.38,0,2.5,1.12,2.5,2.5h0c0,1.94,2.08,3.14,3.75,2.18h0c1.2-.69,2.73-.28,3.42.91l1.44,2.5c.69,1.2.28,2.73-.91,3.42h-.01c-1.67.97-1.67,3.38,0,4.34Z" style="fill: #a8a8a8;"/>
  <circle cx="13.03" cy="13.84" r="5.23" style="fill: #231f20;"/>
</svg>